<mxfile host="app.diagrams.net" modified="2023-10-11T01:50:50.028Z" agent="Mozilla/5.0 (Windows NT 10.0; Win64; x64) AppleWebKit/537.36 (KHTML, like Gecko) Chrome/116.0.0.0 Safari/537.36" etag="Dg5RII9aRXBG9xxPnInp" version="21.7.5" type="device">
  <diagram id="prtHgNgQTEPvFCAcTncT" name="Page-1">
    <mxGraphModel dx="2603" dy="1577" grid="1" gridSize="10" guides="1" tooltips="1" connect="1" arrows="1" fold="1" page="1" pageScale="1" pageWidth="1169" pageHeight="827" math="0" shadow="0">
      <root>
        <mxCell id="0" />
        <mxCell id="1" parent="0" />
        <mxCell id="Jg3intxD1ek4P_nfdZ0U-5" value="Parse TS stream" style="ellipse;whiteSpace=wrap;html=1;align=center;newEdgeStyle={&quot;edgeStyle&quot;:&quot;entityRelationEdgeStyle&quot;,&quot;startArrow&quot;:&quot;none&quot;,&quot;endArrow&quot;:&quot;none&quot;,&quot;segment&quot;:10,&quot;curved&quot;:1,&quot;sourcePerimeterSpacing&quot;:0,&quot;targetPerimeterSpacing&quot;:0};treeFolding=1;treeMoving=1;fillColor=#dae8fc;strokeColor=#6c8ebf;fontStyle=0;fontSize=13;" vertex="1" collapsed="1" parent="1">
          <mxGeometry x="-90" y="-385" width="110" height="40" as="geometry" />
        </mxCell>
        <mxCell id="Jg3intxD1ek4P_nfdZ0U-13" value="ideas" style="whiteSpace=wrap;html=1;rounded=1;arcSize=50;align=center;verticalAlign=middle;strokeWidth=1;autosize=1;spacing=4;treeFolding=1;treeMoving=1;newEdgeStyle={&quot;edgeStyle&quot;:&quot;entityRelationEdgeStyle&quot;,&quot;startArrow&quot;:&quot;none&quot;,&quot;endArrow&quot;:&quot;none&quot;,&quot;segment&quot;:10,&quot;curved&quot;:1,&quot;sourcePerimeterSpacing&quot;:0,&quot;targetPerimeterSpacing&quot;:0};fillColor=#dae8fc;strokeColor=#6c8ebf;" vertex="1" visible="0" collapsed="1" parent="1">
          <mxGeometry x="140" y="-595" width="75" height="30" as="geometry" />
        </mxCell>
        <mxCell id="Jg3intxD1ek4P_nfdZ0U-14" value="" style="edgeStyle=entityRelationEdgeStyle;startArrow=none;endArrow=none;segment=10;curved=1;sourcePerimeterSpacing=0;targetPerimeterSpacing=0;rounded=0;exitX=1;exitY=0.5;exitDx=0;exitDy=0;fillColor=#e1d5e7;strokeColor=#9673a6;" edge="1" visible="0" target="Jg3intxD1ek4P_nfdZ0U-13" parent="1" source="Jg3intxD1ek4P_nfdZ0U-5">
          <mxGeometry relative="1" as="geometry">
            <mxPoint x="180" y="-480" as="sourcePoint" />
          </mxGeometry>
        </mxCell>
        <mxCell id="Jg3intxD1ek4P_nfdZ0U-15" value="architectural patterns" style="whiteSpace=wrap;html=1;rounded=1;arcSize=50;align=center;verticalAlign=middle;strokeWidth=1;autosize=1;spacing=4;treeFolding=1;treeMoving=1;newEdgeStyle={&quot;edgeStyle&quot;:&quot;entityRelationEdgeStyle&quot;,&quot;startArrow&quot;:&quot;none&quot;,&quot;endArrow&quot;:&quot;none&quot;,&quot;segment&quot;:10,&quot;curved&quot;:1,&quot;sourcePerimeterSpacing&quot;:0,&quot;targetPerimeterSpacing&quot;:0};fillColor=#dae8fc;strokeColor=#6c8ebf;" vertex="1" visible="0" collapsed="1" parent="1">
          <mxGeometry x="270" y="-500" width="160" height="30" as="geometry" />
        </mxCell>
        <mxCell id="Jg3intxD1ek4P_nfdZ0U-16" value="" style="edgeStyle=entityRelationEdgeStyle;startArrow=none;endArrow=none;segment=10;curved=1;sourcePerimeterSpacing=0;targetPerimeterSpacing=0;rounded=0;exitX=1;exitY=0.5;exitDx=0;exitDy=0;fillColor=#e1d5e7;strokeColor=#9673a6;entryX=0;entryY=0.5;entryDx=0;entryDy=0;" edge="1" visible="0" parent="1" source="Jg3intxD1ek4P_nfdZ0U-13" target="Jg3intxD1ek4P_nfdZ0U-15">
          <mxGeometry relative="1" as="geometry">
            <mxPoint x="210" y="-405" as="sourcePoint" />
            <mxPoint x="245" y="-550" as="targetPoint" />
          </mxGeometry>
        </mxCell>
        <mxCell id="Jg3intxD1ek4P_nfdZ0U-19" value="MVC" style="whiteSpace=wrap;html=1;rounded=1;arcSize=50;align=center;verticalAlign=middle;strokeWidth=1;autosize=1;spacing=4;treeFolding=1;treeMoving=1;newEdgeStyle={&quot;edgeStyle&quot;:&quot;entityRelationEdgeStyle&quot;,&quot;startArrow&quot;:&quot;none&quot;,&quot;endArrow&quot;:&quot;none&quot;,&quot;segment&quot;:10,&quot;curved&quot;:1,&quot;sourcePerimeterSpacing&quot;:0,&quot;targetPerimeterSpacing&quot;:0};fillColor=#dae8fc;strokeColor=#6c8ebf;" vertex="1" visible="0" collapsed="1" parent="1">
          <mxGeometry x="470" y="-660" width="60" height="15" as="geometry" />
        </mxCell>
        <mxCell id="Jg3intxD1ek4P_nfdZ0U-36" style="edgeStyle=entityRelationEdgeStyle;rounded=0;orthogonalLoop=1;jettySize=auto;html=1;startArrow=none;endArrow=none;segment=10;curved=1;sourcePerimeterSpacing=0;targetPerimeterSpacing=0;exitX=1;exitY=0.5;exitDx=0;exitDy=0;" edge="1" parent="1" source="Jg3intxD1ek4P_nfdZ0U-20" target="Jg3intxD1ek4P_nfdZ0U-35" visible="0">
          <mxGeometry relative="1" as="geometry" />
        </mxCell>
        <mxCell id="Jg3intxD1ek4P_nfdZ0U-20" value="Model" style="whiteSpace=wrap;html=1;rounded=1;arcSize=50;align=center;verticalAlign=middle;strokeWidth=1;autosize=1;spacing=4;treeFolding=1;treeMoving=1;newEdgeStyle={&quot;edgeStyle&quot;:&quot;entityRelationEdgeStyle&quot;,&quot;startArrow&quot;:&quot;none&quot;,&quot;endArrow&quot;:&quot;none&quot;,&quot;segment&quot;:10,&quot;curved&quot;:1,&quot;sourcePerimeterSpacing&quot;:0,&quot;targetPerimeterSpacing&quot;:0};fillColor=#dae8fc;strokeColor=#6c8ebf;" vertex="1" visible="0" parent="1">
          <mxGeometry x="570" y="-697.5" width="77.5" height="20" as="geometry" />
        </mxCell>
        <mxCell id="Jg3intxD1ek4P_nfdZ0U-39" style="edgeStyle=entityRelationEdgeStyle;rounded=0;orthogonalLoop=1;jettySize=auto;html=1;startArrow=none;endArrow=none;segment=10;curved=1;sourcePerimeterSpacing=0;targetPerimeterSpacing=0;exitX=1;exitY=0.5;exitDx=0;exitDy=0;entryX=0;entryY=0.5;entryDx=0;entryDy=0;" edge="1" parent="1" source="Jg3intxD1ek4P_nfdZ0U-22" target="Jg3intxD1ek4P_nfdZ0U-37" visible="0">
          <mxGeometry relative="1" as="geometry" />
        </mxCell>
        <mxCell id="Jg3intxD1ek4P_nfdZ0U-22" value="View" style="whiteSpace=wrap;html=1;rounded=1;arcSize=50;align=center;verticalAlign=middle;strokeWidth=1;autosize=1;spacing=4;treeFolding=1;treeMoving=1;newEdgeStyle={&quot;edgeStyle&quot;:&quot;entityRelationEdgeStyle&quot;,&quot;startArrow&quot;:&quot;none&quot;,&quot;endArrow&quot;:&quot;none&quot;,&quot;segment&quot;:10,&quot;curved&quot;:1,&quot;sourcePerimeterSpacing&quot;:0,&quot;targetPerimeterSpacing&quot;:0};fillColor=#dae8fc;strokeColor=#6c8ebf;" vertex="1" visible="0" parent="1">
          <mxGeometry x="570" y="-662.5" width="77.5" height="20" as="geometry" />
        </mxCell>
        <mxCell id="Jg3intxD1ek4P_nfdZ0U-40" style="edgeStyle=entityRelationEdgeStyle;rounded=0;orthogonalLoop=1;jettySize=auto;html=1;startArrow=none;endArrow=none;segment=10;curved=1;sourcePerimeterSpacing=0;targetPerimeterSpacing=0;exitX=1;exitY=0.5;exitDx=0;exitDy=0;entryX=0;entryY=0.25;entryDx=0;entryDy=0;" edge="1" parent="1" source="Jg3intxD1ek4P_nfdZ0U-25" target="Jg3intxD1ek4P_nfdZ0U-38" visible="0">
          <mxGeometry relative="1" as="geometry" />
        </mxCell>
        <mxCell id="Jg3intxD1ek4P_nfdZ0U-25" value="Controller" style="whiteSpace=wrap;html=1;rounded=1;arcSize=50;align=center;verticalAlign=middle;strokeWidth=1;autosize=1;spacing=4;treeFolding=1;treeMoving=1;newEdgeStyle={&quot;edgeStyle&quot;:&quot;entityRelationEdgeStyle&quot;,&quot;startArrow&quot;:&quot;none&quot;,&quot;endArrow&quot;:&quot;none&quot;,&quot;segment&quot;:10,&quot;curved&quot;:1,&quot;sourcePerimeterSpacing&quot;:0,&quot;targetPerimeterSpacing&quot;:0};fillColor=#dae8fc;strokeColor=#6c8ebf;" vertex="1" visible="0" parent="1">
          <mxGeometry x="570" y="-627.5" width="77.5" height="20" as="geometry" />
        </mxCell>
        <mxCell id="Jg3intxD1ek4P_nfdZ0U-29" value="" style="edgeStyle=entityRelationEdgeStyle;startArrow=none;endArrow=none;segment=10;curved=1;sourcePerimeterSpacing=0;targetPerimeterSpacing=0;rounded=0;fillColor=#e1d5e7;strokeColor=#9673a6;entryX=0;entryY=0.5;entryDx=0;entryDy=0;exitX=1;exitY=0.5;exitDx=0;exitDy=0;" edge="1" visible="0" parent="1" source="Jg3intxD1ek4P_nfdZ0U-15" target="Jg3intxD1ek4P_nfdZ0U-19">
          <mxGeometry relative="1" as="geometry">
            <mxPoint x="485" y="-480" as="sourcePoint" />
            <mxPoint x="499.75" y="-650" as="targetPoint" />
            <Array as="points">
              <mxPoint x="579.75" y="-585" />
            </Array>
          </mxGeometry>
        </mxCell>
        <mxCell id="Jg3intxD1ek4P_nfdZ0U-35" value="&lt;h1&gt;&lt;font style=&quot;font-size: 19px;&quot;&gt;Model&lt;/font&gt;&lt;/h1&gt;&lt;p&gt;&lt;font style=&quot;font-size: 10px;&quot;&gt;模型代表着应用信息的本源，包含和管理（业务）逻辑、数据、状态已经应用的规则。&lt;/font&gt;&lt;/p&gt;" style="text;html=1;strokeColor=none;fillColor=none;spacing=5;spacingTop=-20;whiteSpace=wrap;overflow=hidden;rounded=0;" vertex="1" visible="0" parent="1">
          <mxGeometry x="690" y="-800" width="140" height="110" as="geometry" />
        </mxCell>
        <mxCell id="Jg3intxD1ek4P_nfdZ0U-37" value="&lt;h1&gt;&lt;font style=&quot;font-size: 19px;&quot;&gt;View&lt;/font&gt;&lt;/h1&gt;&lt;p&gt;&lt;span style=&quot;font-size: 10px;&quot;&gt;视图是模型的可视化表现，仅仅展示数据，不处理数据&lt;/span&gt;&lt;/p&gt;" style="text;html=1;strokeColor=none;fillColor=none;spacing=5;spacingTop=-20;whiteSpace=wrap;overflow=hidden;rounded=0;" vertex="1" visible="0" parent="1">
          <mxGeometry x="690" y="-692.5" width="140" height="80" as="geometry" />
        </mxCell>
        <mxCell id="Jg3intxD1ek4P_nfdZ0U-38" value="&lt;h1&gt;&lt;span style=&quot;font-size: 19px;&quot;&gt;Controller&lt;/span&gt;&lt;/h1&gt;&lt;p&gt;&lt;span style=&quot;font-size: 10px;&quot;&gt;建立模型与视图之间的通信&lt;/span&gt;&lt;/p&gt;" style="text;html=1;strokeColor=none;fillColor=none;spacing=5;spacingTop=-20;whiteSpace=wrap;overflow=hidden;rounded=0;" vertex="1" visible="0" parent="1">
          <mxGeometry x="690" y="-595" width="140" height="70" as="geometry" />
        </mxCell>
        <mxCell id="Jg3intxD1ek4P_nfdZ0U-41" value="实现" style="whiteSpace=wrap;html=1;rounded=1;arcSize=50;align=center;verticalAlign=middle;strokeWidth=1;autosize=1;spacing=4;treeFolding=1;treeMoving=1;newEdgeStyle={&quot;edgeStyle&quot;:&quot;entityRelationEdgeStyle&quot;,&quot;startArrow&quot;:&quot;none&quot;,&quot;endArrow&quot;:&quot;none&quot;,&quot;segment&quot;:10,&quot;curved&quot;:1,&quot;sourcePerimeterSpacing&quot;:0,&quot;targetPerimeterSpacing&quot;:0};fillColor=#dae8fc;strokeColor=#6c8ebf;" vertex="1" visible="0" collapsed="1" parent="1">
          <mxGeometry x="470" y="-438" width="64.75" height="25" as="geometry" />
        </mxCell>
        <mxCell id="Jg3intxD1ek4P_nfdZ0U-74" style="edgeStyle=entityRelationEdgeStyle;rounded=0;orthogonalLoop=1;jettySize=auto;html=1;startArrow=none;endArrow=none;segment=10;curved=1;sourcePerimeterSpacing=0;targetPerimeterSpacing=0;exitX=1;exitY=0.5;exitDx=0;exitDy=0;entryX=0;entryY=0.5;entryDx=0;entryDy=0;fillColor=#e1d5e7;strokeColor=#9673a6;" edge="1" parent="1" source="Jg3intxD1ek4P_nfdZ0U-42" target="Jg3intxD1ek4P_nfdZ0U-47" visible="0">
          <mxGeometry relative="1" as="geometry" />
        </mxCell>
        <mxCell id="Jg3intxD1ek4P_nfdZ0U-42" value="底层解析" style="whiteSpace=wrap;html=1;rounded=1;arcSize=50;align=center;verticalAlign=middle;strokeWidth=1;autosize=1;spacing=4;treeFolding=1;treeMoving=1;newEdgeStyle={&quot;edgeStyle&quot;:&quot;entityRelationEdgeStyle&quot;,&quot;startArrow&quot;:&quot;none&quot;,&quot;endArrow&quot;:&quot;none&quot;,&quot;segment&quot;:10,&quot;curved&quot;:1,&quot;sourcePerimeterSpacing&quot;:0,&quot;targetPerimeterSpacing&quot;:0};fillColor=#dae8fc;strokeColor=#6c8ebf;" vertex="1" visible="0" parent="1">
          <mxGeometry x="570" y="-495" width="80" height="20" as="geometry" />
        </mxCell>
        <mxCell id="Jg3intxD1ek4P_nfdZ0U-76" style="edgeStyle=entityRelationEdgeStyle;rounded=0;orthogonalLoop=1;jettySize=auto;html=1;startArrow=none;endArrow=none;segment=10;curved=1;sourcePerimeterSpacing=0;targetPerimeterSpacing=0;exitX=1;exitY=0.5;exitDx=0;exitDy=0;entryX=0;entryY=0.5;entryDx=0;entryDy=0;fillColor=#e1d5e7;strokeColor=#9673a6;" edge="1" parent="1" source="Jg3intxD1ek4P_nfdZ0U-44" target="Jg3intxD1ek4P_nfdZ0U-48" visible="0">
          <mxGeometry relative="1" as="geometry" />
        </mxCell>
        <mxCell id="Jg3intxD1ek4P_nfdZ0U-44" value="GUI" style="whiteSpace=wrap;html=1;rounded=1;arcSize=50;align=center;verticalAlign=middle;strokeWidth=1;autosize=1;spacing=4;treeFolding=1;treeMoving=1;newEdgeStyle={&quot;edgeStyle&quot;:&quot;entityRelationEdgeStyle&quot;,&quot;startArrow&quot;:&quot;none&quot;,&quot;endArrow&quot;:&quot;none&quot;,&quot;segment&quot;:10,&quot;curved&quot;:1,&quot;sourcePerimeterSpacing&quot;:0,&quot;targetPerimeterSpacing&quot;:0};fillColor=#dae8fc;strokeColor=#6c8ebf;" vertex="1" visible="0" parent="1">
          <mxGeometry x="570" y="-415" width="80" height="20" as="geometry" />
        </mxCell>
        <mxCell id="Jg3intxD1ek4P_nfdZ0U-47" value=".dll动态链接库" style="whiteSpace=wrap;html=1;rounded=1;arcSize=50;align=center;verticalAlign=middle;strokeWidth=1;autosize=1;spacing=4;treeFolding=1;treeMoving=1;newEdgeStyle={&quot;edgeStyle&quot;:&quot;entityRelationEdgeStyle&quot;,&quot;startArrow&quot;:&quot;none&quot;,&quot;endArrow&quot;:&quot;none&quot;,&quot;segment&quot;:10,&quot;curved&quot;:1,&quot;sourcePerimeterSpacing&quot;:0,&quot;targetPerimeterSpacing&quot;:0};fillColor=#dae8fc;strokeColor=#6c8ebf;" vertex="1" visible="0" parent="1">
          <mxGeometry x="680" y="-495" width="120" height="20" as="geometry" />
        </mxCell>
        <mxCell id="Jg3intxD1ek4P_nfdZ0U-48" value="&amp;nbsp; Pyside 6" style="whiteSpace=wrap;html=1;rounded=1;arcSize=50;align=center;verticalAlign=middle;strokeWidth=1;autosize=1;spacing=4;treeFolding=1;treeMoving=1;newEdgeStyle={&quot;edgeStyle&quot;:&quot;entityRelationEdgeStyle&quot;,&quot;startArrow&quot;:&quot;none&quot;,&quot;endArrow&quot;:&quot;none&quot;,&quot;segment&quot;:10,&quot;curved&quot;:1,&quot;sourcePerimeterSpacing&quot;:0,&quot;targetPerimeterSpacing&quot;:0};fillColor=#dae8fc;strokeColor=#6c8ebf;" vertex="1" visible="0" parent="1">
          <mxGeometry x="680" y="-415" width="120" height="20" as="geometry" />
        </mxCell>
        <mxCell id="Jg3intxD1ek4P_nfdZ0U-49" value="Python" style="whiteSpace=wrap;html=1;rounded=1;arcSize=50;align=center;verticalAlign=middle;strokeWidth=1;autosize=1;spacing=4;treeFolding=1;treeMoving=1;newEdgeStyle={&quot;edgeStyle&quot;:&quot;entityRelationEdgeStyle&quot;,&quot;startArrow&quot;:&quot;none&quot;,&quot;endArrow&quot;:&quot;none&quot;,&quot;segment&quot;:10,&quot;curved&quot;:1,&quot;sourcePerimeterSpacing&quot;:0,&quot;targetPerimeterSpacing&quot;:0};fillColor=#dae8fc;strokeColor=#6c8ebf;" vertex="1" visible="0" parent="1">
          <mxGeometry x="680" y="-455" width="120" height="20" as="geometry" />
        </mxCell>
        <mxCell id="Jg3intxD1ek4P_nfdZ0U-75" style="edgeStyle=entityRelationEdgeStyle;rounded=0;orthogonalLoop=1;jettySize=auto;html=1;startArrow=none;endArrow=none;segment=10;curved=1;sourcePerimeterSpacing=0;targetPerimeterSpacing=0;exitX=1;exitY=0.5;exitDx=0;exitDy=0;entryX=0;entryY=0.5;entryDx=0;entryDy=0;fillColor=#e1d5e7;strokeColor=#9673a6;" edge="1" parent="1" source="Jg3intxD1ek4P_nfdZ0U-50" target="Jg3intxD1ek4P_nfdZ0U-49" visible="0">
          <mxGeometry relative="1" as="geometry" />
        </mxCell>
        <mxCell id="Jg3intxD1ek4P_nfdZ0U-50" value="中间链接" style="whiteSpace=wrap;html=1;rounded=1;arcSize=50;align=center;verticalAlign=middle;strokeWidth=1;autosize=1;spacing=4;treeFolding=1;treeMoving=1;newEdgeStyle={&quot;edgeStyle&quot;:&quot;entityRelationEdgeStyle&quot;,&quot;startArrow&quot;:&quot;none&quot;,&quot;endArrow&quot;:&quot;none&quot;,&quot;segment&quot;:10,&quot;curved&quot;:1,&quot;sourcePerimeterSpacing&quot;:0,&quot;targetPerimeterSpacing&quot;:0};fillColor=#dae8fc;strokeColor=#6c8ebf;" vertex="1" visible="0" parent="1">
          <mxGeometry x="570" y="-455" width="80" height="20" as="geometry" />
        </mxCell>
        <mxCell id="Jg3intxD1ek4P_nfdZ0U-77" style="edgeStyle=entityRelationEdgeStyle;rounded=0;orthogonalLoop=1;jettySize=auto;html=1;startArrow=none;endArrow=none;segment=10;curved=1;sourcePerimeterSpacing=0;targetPerimeterSpacing=0;entryX=0;entryY=0.5;entryDx=0;entryDy=0;exitX=1;exitY=0.5;exitDx=0;exitDy=0;fillColor=#e1d5e7;strokeColor=#9673a6;" edge="1" parent="1" source="Jg3intxD1ek4P_nfdZ0U-51" target="Jg3intxD1ek4P_nfdZ0U-52" visible="0">
          <mxGeometry relative="1" as="geometry">
            <mxPoint x="730" y="-282" as="sourcePoint" />
          </mxGeometry>
        </mxCell>
        <mxCell id="Jg3intxD1ek4P_nfdZ0U-51" value="数据交换" style="whiteSpace=wrap;html=1;rounded=1;arcSize=50;align=center;verticalAlign=middle;strokeWidth=1;autosize=1;spacing=4;treeFolding=1;treeMoving=1;newEdgeStyle={&quot;edgeStyle&quot;:&quot;entityRelationEdgeStyle&quot;,&quot;startArrow&quot;:&quot;none&quot;,&quot;endArrow&quot;:&quot;none&quot;,&quot;segment&quot;:10,&quot;curved&quot;:1,&quot;sourcePerimeterSpacing&quot;:0,&quot;targetPerimeterSpacing&quot;:0};fillColor=#dae8fc;strokeColor=#6c8ebf;" vertex="1" visible="0" parent="1">
          <mxGeometry x="570" y="-369" width="80" height="20" as="geometry" />
        </mxCell>
        <mxCell id="Jg3intxD1ek4P_nfdZ0U-52" value="json" style="whiteSpace=wrap;html=1;rounded=1;arcSize=50;align=center;verticalAlign=middle;strokeWidth=1;autosize=1;spacing=4;treeFolding=1;treeMoving=1;newEdgeStyle={&quot;edgeStyle&quot;:&quot;entityRelationEdgeStyle&quot;,&quot;startArrow&quot;:&quot;none&quot;,&quot;endArrow&quot;:&quot;none&quot;,&quot;segment&quot;:10,&quot;curved&quot;:1,&quot;sourcePerimeterSpacing&quot;:0,&quot;targetPerimeterSpacing&quot;:0};fillColor=#dae8fc;strokeColor=#6c8ebf;" vertex="1" visible="0" parent="1">
          <mxGeometry x="680" y="-384" width="120" height="20" as="geometry" />
        </mxCell>
        <mxCell id="Jg3intxD1ek4P_nfdZ0U-54" value="CSV" style="whiteSpace=wrap;html=1;rounded=1;arcSize=50;align=center;verticalAlign=middle;strokeWidth=1;autosize=1;spacing=4;treeFolding=1;treeMoving=1;newEdgeStyle={&quot;edgeStyle&quot;:&quot;entityRelationEdgeStyle&quot;,&quot;startArrow&quot;:&quot;none&quot;,&quot;endArrow&quot;:&quot;none&quot;,&quot;segment&quot;:10,&quot;curved&quot;:1,&quot;sourcePerimeterSpacing&quot;:0,&quot;targetPerimeterSpacing&quot;:0};fillColor=#dae8fc;strokeColor=#6c8ebf;" vertex="1" visible="0" parent="1">
          <mxGeometry x="680" y="-354" width="120" height="20" as="geometry" />
        </mxCell>
        <mxCell id="Jg3intxD1ek4P_nfdZ0U-56" value="" style="edgeStyle=entityRelationEdgeStyle;startArrow=none;endArrow=none;segment=10;curved=1;sourcePerimeterSpacing=0;targetPerimeterSpacing=0;rounded=0;exitX=1;exitY=0.5;exitDx=0;exitDy=0;fillColor=#e1d5e7;strokeColor=#9673a6;entryX=0;entryY=0.5;entryDx=0;entryDy=0;" edge="1" visible="0" parent="1" source="Jg3intxD1ek4P_nfdZ0U-15" target="Jg3intxD1ek4P_nfdZ0U-41">
          <mxGeometry relative="1" as="geometry">
            <mxPoint x="484.75" y="-480.0000000000001" as="sourcePoint" />
            <mxPoint x="464.75" y="-530" as="targetPoint" />
            <Array as="points">
              <mxPoint x="589.75" y="-575" />
            </Array>
          </mxGeometry>
        </mxCell>
        <mxCell id="Jg3intxD1ek4P_nfdZ0U-58" value="" style="edgeStyle=entityRelationEdgeStyle;startArrow=none;endArrow=none;segment=10;curved=1;sourcePerimeterSpacing=0;targetPerimeterSpacing=0;rounded=0;exitX=1;exitY=0.5;exitDx=0;exitDy=0;fillColor=#e1d5e7;strokeColor=#9673a6;entryX=0;entryY=0.5;entryDx=0;entryDy=0;" edge="1" visible="0" parent="1" source="Jg3intxD1ek4P_nfdZ0U-19" target="Jg3intxD1ek4P_nfdZ0U-20">
          <mxGeometry relative="1" as="geometry">
            <mxPoint x="497.75" y="-635" as="sourcePoint" />
            <mxPoint x="537.75" y="-825" as="targetPoint" />
            <Array as="points">
              <mxPoint x="652.75" y="-725" />
            </Array>
          </mxGeometry>
        </mxCell>
        <mxCell id="Jg3intxD1ek4P_nfdZ0U-59" value="" style="edgeStyle=entityRelationEdgeStyle;startArrow=none;endArrow=none;segment=10;curved=1;sourcePerimeterSpacing=0;targetPerimeterSpacing=0;rounded=0;fillColor=#e1d5e7;strokeColor=#9673a6;entryX=0;entryY=0.5;entryDx=0;entryDy=0;exitX=1;exitY=0.5;exitDx=0;exitDy=0;" edge="1" visible="0" parent="1" source="Jg3intxD1ek4P_nfdZ0U-19" target="Jg3intxD1ek4P_nfdZ0U-22">
          <mxGeometry relative="1" as="geometry">
            <mxPoint x="495.25" y="-695" as="sourcePoint" />
            <mxPoint x="385.25" y="-845" as="targetPoint" />
            <Array as="points">
              <mxPoint x="500.25" y="-745" />
            </Array>
          </mxGeometry>
        </mxCell>
        <mxCell id="Jg3intxD1ek4P_nfdZ0U-62" value="" style="edgeStyle=entityRelationEdgeStyle;startArrow=none;endArrow=none;segment=10;curved=1;sourcePerimeterSpacing=0;targetPerimeterSpacing=0;rounded=0;fillColor=#e1d5e7;strokeColor=#9673a6;entryX=0;entryY=0.5;entryDx=0;entryDy=0;exitX=1;exitY=0.5;exitDx=0;exitDy=0;" edge="1" visible="0" parent="1" source="Jg3intxD1ek4P_nfdZ0U-19" target="Jg3intxD1ek4P_nfdZ0U-25">
          <mxGeometry relative="1" as="geometry">
            <mxPoint x="485.25" y="-650" as="sourcePoint" />
            <mxPoint x="548.25" y="-650" as="targetPoint" />
            <Array as="points">
              <mxPoint x="510.25" y="-735" />
            </Array>
          </mxGeometry>
        </mxCell>
        <mxCell id="Jg3intxD1ek4P_nfdZ0U-67" value="" style="edgeStyle=entityRelationEdgeStyle;startArrow=none;endArrow=none;segment=10;curved=1;sourcePerimeterSpacing=0;targetPerimeterSpacing=0;rounded=0;fillColor=#e1d5e7;strokeColor=#9673a6;entryX=0;entryY=0.5;entryDx=0;entryDy=0;" edge="1" visible="0" parent="1" source="Jg3intxD1ek4P_nfdZ0U-41" target="Jg3intxD1ek4P_nfdZ0U-42">
          <mxGeometry relative="1" as="geometry">
            <mxPoint x="480" y="-555" as="sourcePoint" />
            <mxPoint x="539" y="-474" as="targetPoint" />
            <Array as="points">
              <mxPoint x="645" y="-635" />
            </Array>
          </mxGeometry>
        </mxCell>
        <mxCell id="Jg3intxD1ek4P_nfdZ0U-68" value="" style="edgeStyle=entityRelationEdgeStyle;startArrow=none;endArrow=none;segment=10;curved=1;sourcePerimeterSpacing=0;targetPerimeterSpacing=0;rounded=0;fillColor=#e1d5e7;strokeColor=#9673a6;entryX=0;entryY=0.5;entryDx=0;entryDy=0;exitX=1;exitY=0.5;exitDx=0;exitDy=0;" edge="1" visible="0" parent="1" source="Jg3intxD1ek4P_nfdZ0U-41" target="Jg3intxD1ek4P_nfdZ0U-51">
          <mxGeometry relative="1" as="geometry">
            <mxPoint x="450" y="-366" as="sourcePoint" />
            <mxPoint x="509" y="-285" as="targetPoint" />
            <Array as="points">
              <mxPoint x="615" y="-446" />
            </Array>
          </mxGeometry>
        </mxCell>
        <mxCell id="Jg3intxD1ek4P_nfdZ0U-69" value="" style="edgeStyle=entityRelationEdgeStyle;startArrow=none;endArrow=none;segment=10;curved=1;sourcePerimeterSpacing=0;targetPerimeterSpacing=0;rounded=0;exitX=1;exitY=0.5;exitDx=0;exitDy=0;fillColor=#e1d5e7;strokeColor=#9673a6;entryX=0;entryY=0.5;entryDx=0;entryDy=0;" edge="1" visible="0" parent="1" source="Jg3intxD1ek4P_nfdZ0U-82" target="Jg3intxD1ek4P_nfdZ0U-85">
          <mxGeometry relative="1" as="geometry">
            <mxPoint x="231" y="-310" as="sourcePoint" />
            <mxPoint x="290" y="-229" as="targetPoint" />
            <Array as="points">
              <mxPoint x="396" y="-390" />
            </Array>
          </mxGeometry>
        </mxCell>
        <mxCell id="Jg3intxD1ek4P_nfdZ0U-70" value="" style="edgeStyle=entityRelationEdgeStyle;startArrow=none;endArrow=none;segment=10;curved=1;sourcePerimeterSpacing=0;targetPerimeterSpacing=0;rounded=0;exitX=1;exitY=0.5;exitDx=0;exitDy=0;fillColor=#e1d5e7;strokeColor=#9673a6;entryX=0;entryY=0.5;entryDx=0;entryDy=0;" edge="1" visible="0" parent="1" source="Jg3intxD1ek4P_nfdZ0U-41" target="Jg3intxD1ek4P_nfdZ0U-44">
          <mxGeometry relative="1" as="geometry">
            <mxPoint x="470" y="-385" as="sourcePoint" />
            <mxPoint x="529" y="-304" as="targetPoint" />
            <Array as="points">
              <mxPoint x="635" y="-465" />
            </Array>
          </mxGeometry>
        </mxCell>
        <mxCell id="Jg3intxD1ek4P_nfdZ0U-71" value="" style="edgeStyle=entityRelationEdgeStyle;startArrow=none;endArrow=none;segment=10;curved=1;sourcePerimeterSpacing=0;targetPerimeterSpacing=0;rounded=0;exitX=1;exitY=0.5;exitDx=0;exitDy=0;fillColor=#e1d5e7;strokeColor=#9673a6;entryX=0;entryY=0.5;entryDx=0;entryDy=0;" edge="1" visible="0" parent="1" source="Jg3intxD1ek4P_nfdZ0U-5" target="Jg3intxD1ek4P_nfdZ0U-82">
          <mxGeometry relative="1" as="geometry">
            <mxPoint x="150.5" y="-480" as="sourcePoint" />
            <mxPoint x="209.5" y="-399" as="targetPoint" />
            <Array as="points">
              <mxPoint x="315.5" y="-560" />
            </Array>
          </mxGeometry>
        </mxCell>
        <mxCell id="Jg3intxD1ek4P_nfdZ0U-72" value="" style="edgeStyle=entityRelationEdgeStyle;startArrow=none;endArrow=none;segment=10;curved=1;sourcePerimeterSpacing=0;targetPerimeterSpacing=0;rounded=0;exitX=1;exitY=0.5;exitDx=0;exitDy=0;fillColor=#e1d5e7;strokeColor=#9673a6;entryX=0;entryY=0.5;entryDx=0;entryDy=0;" edge="1" visible="0" parent="1" source="Jg3intxD1ek4P_nfdZ0U-82" target="Jg3intxD1ek4P_nfdZ0U-83">
          <mxGeometry relative="1" as="geometry">
            <mxPoint x="151" y="-240" as="sourcePoint" />
            <mxPoint x="210" y="-159" as="targetPoint" />
            <Array as="points">
              <mxPoint x="316" y="-320" />
            </Array>
          </mxGeometry>
        </mxCell>
        <mxCell id="Jg3intxD1ek4P_nfdZ0U-73" value="" style="edgeStyle=entityRelationEdgeStyle;startArrow=none;endArrow=none;segment=10;curved=1;sourcePerimeterSpacing=0;targetPerimeterSpacing=0;rounded=0;fillColor=#e1d5e7;strokeColor=#9673a6;entryX=0;entryY=0.5;entryDx=0;entryDy=0;exitX=1;exitY=0.5;exitDx=0;exitDy=0;" edge="1" visible="0" parent="1" source="Jg3intxD1ek4P_nfdZ0U-41" target="Jg3intxD1ek4P_nfdZ0U-50">
          <mxGeometry relative="1" as="geometry">
            <mxPoint x="510" y="-395" as="sourcePoint" />
            <mxPoint x="559" y="-314" as="targetPoint" />
            <Array as="points">
              <mxPoint x="665" y="-475" />
            </Array>
          </mxGeometry>
        </mxCell>
        <mxCell id="Jg3intxD1ek4P_nfdZ0U-79" style="edgeStyle=entityRelationEdgeStyle;rounded=0;orthogonalLoop=1;jettySize=auto;html=1;startArrow=none;endArrow=none;segment=10;curved=1;sourcePerimeterSpacing=0;targetPerimeterSpacing=0;entryX=0;entryY=0.5;entryDx=0;entryDy=0;exitX=1;exitY=0.5;exitDx=0;exitDy=0;fillColor=#e1d5e7;strokeColor=#9673a6;" edge="1" visible="0" parent="1" source="Jg3intxD1ek4P_nfdZ0U-51" target="Jg3intxD1ek4P_nfdZ0U-54">
          <mxGeometry relative="1" as="geometry">
            <mxPoint x="700" y="-245" as="sourcePoint" />
            <mxPoint x="760" y="-255" as="targetPoint" />
          </mxGeometry>
        </mxCell>
        <mxCell id="Jg3intxD1ek4P_nfdZ0U-80" value="new&amp;nbsp;harvest" style="whiteSpace=wrap;html=1;rounded=1;arcSize=50;align=center;verticalAlign=middle;strokeWidth=1;autosize=1;spacing=4;treeFolding=1;treeMoving=1;newEdgeStyle={&quot;edgeStyle&quot;:&quot;entityRelationEdgeStyle&quot;,&quot;startArrow&quot;:&quot;none&quot;,&quot;endArrow&quot;:&quot;none&quot;,&quot;segment&quot;:10,&quot;curved&quot;:1,&quot;sourcePerimeterSpacing&quot;:0,&quot;targetPerimeterSpacing&quot;:0};fillColor=#dae8fc;strokeColor=#6c8ebf;" vertex="1" visible="0" collapsed="1" parent="1">
          <mxGeometry x="270" y="-750" width="110" height="30" as="geometry" />
        </mxCell>
        <mxCell id="Jg3intxD1ek4P_nfdZ0U-81" value="" style="edgeStyle=entityRelationEdgeStyle;startArrow=none;endArrow=none;segment=10;curved=1;sourcePerimeterSpacing=0;targetPerimeterSpacing=0;rounded=0;fillColor=#e1d5e7;strokeColor=#9673a6;entryX=0;entryY=0.5;entryDx=0;entryDy=0;exitX=1;exitY=0.5;exitDx=0;exitDy=0;" edge="1" visible="0" target="Jg3intxD1ek4P_nfdZ0U-80" parent="1" source="Jg3intxD1ek4P_nfdZ0U-13">
          <mxGeometry relative="1" as="geometry">
            <mxPoint x="240" y="-620" as="sourcePoint" />
            <mxPoint x="245" y="-875" as="targetPoint" />
          </mxGeometry>
        </mxCell>
        <mxCell id="Jg3intxD1ek4P_nfdZ0U-82" value="codes" style="whiteSpace=wrap;html=1;rounded=1;arcSize=50;align=center;verticalAlign=middle;strokeWidth=1;autosize=1;spacing=4;treeFolding=1;treeMoving=1;newEdgeStyle={&quot;edgeStyle&quot;:&quot;entityRelationEdgeStyle&quot;,&quot;startArrow&quot;:&quot;none&quot;,&quot;endArrow&quot;:&quot;none&quot;,&quot;segment&quot;:10,&quot;curved&quot;:1,&quot;sourcePerimeterSpacing&quot;:0,&quot;targetPerimeterSpacing&quot;:0};fillColor=#dae8fc;strokeColor=#6c8ebf;" vertex="1" visible="0" collapsed="1" parent="1">
          <mxGeometry x="140" y="-380" width="70" height="30" as="geometry" />
        </mxCell>
        <mxCell id="Jg3intxD1ek4P_nfdZ0U-83" value="C" style="whiteSpace=wrap;html=1;rounded=1;arcSize=50;align=center;verticalAlign=middle;strokeWidth=1;autosize=1;spacing=4;treeFolding=1;treeMoving=1;newEdgeStyle={&quot;edgeStyle&quot;:&quot;entityRelationEdgeStyle&quot;,&quot;startArrow&quot;:&quot;none&quot;,&quot;endArrow&quot;:&quot;none&quot;,&quot;segment&quot;:10,&quot;curved&quot;:1,&quot;sourcePerimeterSpacing&quot;:0,&quot;targetPerimeterSpacing&quot;:0};fillColor=#dae8fc;strokeColor=#6c8ebf;" vertex="1" visible="0" collapsed="1" parent="1">
          <mxGeometry x="280" y="-394" width="50" height="30" as="geometry" />
        </mxCell>
        <mxCell id="Jg3intxD1ek4P_nfdZ0U-149" style="edgeStyle=entityRelationEdgeStyle;rounded=0;orthogonalLoop=1;jettySize=auto;html=1;startArrow=none;endArrow=none;segment=10;curved=1;sourcePerimeterSpacing=0;targetPerimeterSpacing=0;exitX=1;exitY=0.5;exitDx=0;exitDy=0;fillColor=#e1d5e7;strokeColor=#9673a6;entryX=0;entryY=0.5;entryDx=0;entryDy=0;" edge="1" parent="1" source="Jg3intxD1ek4P_nfdZ0U-85" target="Jg3intxD1ek4P_nfdZ0U-141" visible="0">
          <mxGeometry relative="1" as="geometry">
            <mxPoint x="390" y="-360" as="targetPoint" />
          </mxGeometry>
        </mxCell>
        <mxCell id="Jg3intxD1ek4P_nfdZ0U-85" value="Python" style="whiteSpace=wrap;html=1;rounded=1;arcSize=50;align=center;verticalAlign=middle;strokeWidth=1;autosize=1;spacing=4;treeFolding=1;treeMoving=1;newEdgeStyle={&quot;edgeStyle&quot;:&quot;entityRelationEdgeStyle&quot;,&quot;startArrow&quot;:&quot;none&quot;,&quot;endArrow&quot;:&quot;none&quot;,&quot;segment&quot;:10,&quot;curved&quot;:1,&quot;sourcePerimeterSpacing&quot;:0,&quot;targetPerimeterSpacing&quot;:0};fillColor=#dae8fc;strokeColor=#6c8ebf;" vertex="1" visible="0" parent="1">
          <mxGeometry x="265" y="-350" width="80" height="30" as="geometry" />
        </mxCell>
        <mxCell id="Jg3intxD1ek4P_nfdZ0U-86" value="future" style="whiteSpace=wrap;html=1;rounded=1;arcSize=50;align=center;verticalAlign=middle;strokeWidth=1;autosize=1;spacing=4;treeFolding=1;treeMoving=1;newEdgeStyle={&quot;edgeStyle&quot;:&quot;entityRelationEdgeStyle&quot;,&quot;startArrow&quot;:&quot;none&quot;,&quot;endArrow&quot;:&quot;none&quot;,&quot;segment&quot;:10,&quot;curved&quot;:1,&quot;sourcePerimeterSpacing&quot;:0,&quot;targetPerimeterSpacing&quot;:0};fillColor=#dae8fc;strokeColor=#6c8ebf;" vertex="1" visible="0" collapsed="1" parent="1">
          <mxGeometry x="140" y="-165" width="80" height="30" as="geometry" />
        </mxCell>
        <mxCell id="Jg3intxD1ek4P_nfdZ0U-88" value="柔性数组" style="whiteSpace=wrap;html=1;rounded=1;arcSize=50;align=center;verticalAlign=middle;strokeWidth=1;autosize=1;spacing=4;treeFolding=1;treeMoving=1;newEdgeStyle={&quot;edgeStyle&quot;:&quot;entityRelationEdgeStyle&quot;,&quot;startArrow&quot;:&quot;none&quot;,&quot;endArrow&quot;:&quot;none&quot;,&quot;segment&quot;:10,&quot;curved&quot;:1,&quot;sourcePerimeterSpacing&quot;:0,&quot;targetPerimeterSpacing&quot;:0};fillColor=#dae8fc;strokeColor=#6c8ebf;" vertex="1" visible="0" parent="1">
          <mxGeometry x="710" y="-1120" width="90" height="30" as="geometry" />
        </mxCell>
        <mxCell id="Jg3intxD1ek4P_nfdZ0U-89" value="" style="edgeStyle=entityRelationEdgeStyle;startArrow=none;endArrow=none;segment=10;curved=1;sourcePerimeterSpacing=0;targetPerimeterSpacing=0;rounded=0;fillColor=#e1d5e7;strokeColor=#9673a6;exitX=1;exitY=0.5;exitDx=0;exitDy=0;" edge="1" visible="0" target="Jg3intxD1ek4P_nfdZ0U-88" parent="1" source="Jg3intxD1ek4P_nfdZ0U-100">
          <mxGeometry relative="1" as="geometry">
            <mxPoint x="640" y="-805" as="sourcePoint" />
          </mxGeometry>
        </mxCell>
        <UserObject label="内存空间" link="https://viewer.diagrams.net/?tags=%7B%7D&amp;highlight=0000ff&amp;edit=_blank&amp;layers=1&amp;nav=1&amp;title=%E5%86%85%E5%AD%98%E5%88%86%E6%9E%90.drawio#R7Vxrc6O2Gv41zPR0ZjOAuEgfwXbaD7udnZN22v2IbWLTYuODySbprz96hQAhJIwdQ9ImOzu7IAmhy6PnvWIDzXZPP%2BXRYfslW8epYZvrJwPNDdsmmNB%2FoeC5LHAtvyzY5Mm6LLKagrvk75gXmrz0IVnHx1bDIsvSIjm0C1fZfh%2BvilZZlOfZY7vZfZa233qINnGn4G4Vpd3S35N1seWllkeaip%2FjZLPlr8Y2n98uqhrzmRy30Tp7FIrQwkCzPMuK8mr3NItTWLtqXcrnbjW19cDyeF8MeeC3%2F94efnnI13j1jH515r9nK2x94r18j9IHPmHD9lLaX3if0W7pgkWrssL73wOMNJxlu2RFK%2B6i%2FZH%2B9%2BWuqYJJFs9puz308%2BnI9jWgDSx8eGJNm4e8Dfz%2FJd5l%2BTPMiG5vNQg6m3IcZRu%2BkPU77ONjskujPb0LH7dJEd8dyuE%2BUizSsm2xS%2BmdRS%2BPRZQXHF42gnElaTrL0ixnPaH7%2B9hbrVjDPPsrFmrWPlmaJq3Js4f9Ol7zDvnCxXkRP2l3xKr3mZ6PONvFBZsif8B1yyf40SAcKI8CzkyPF24FjHkmL4w4uDd1183%2B0wsOgTPgYE8OB08DB7pfBet4V%2BHiyPZ2cmCsoxjfK4HhrXC8vL8MGPrD2EULhwfqwqMuE9Hh%2BmOhwzuFjtPb7Wi2u%2Bpo2dl%2FY%2BEaATJCeuEZBBt4ASX4Fq4XxMA%2BXFdP53J%2FdJ5LRVkvdtrbeQI%2B56OllgMvA4t9DrW4CmqxlcwyFrHosUPP9f662GEAoajBcBFaBjb1kNEApBzU%2BwGITbzXRog%2FMUJCDH8%2F8KDEA%2FLxa%2BMBT4oHYpC5QQgIGUoX2GLSxmVixzfC0MDOB0JaCLGQ%2FdoIIa%2BMECpiaIkPCAlmRuAZC4exiv0BlbZwsZxXhkqlJ78%2BmdCSuREsOKsQxKoWAr0M1mHfG4oc77WVWHTK%2FpnMOl4%2F76PdJObxm7OGeS%2F1LuutY2xOah3rpdHLrWNKEgElEmbQ4JkRBhds9DbLk79p2wi21jx75%2B%2FxKlY7yJbYddyug2yTRscjf1U1jM8JDIUVXQ4M1AsMS2KNLi58z%2B3ionbTXh0X1rSKbG3xUsMGcRuYWjjhXBBCzBjGgabxm7CTB8DtcgSRXgQ5bWaxFWLHUTHLaHquqwCQtNSrh%2Fx7vdLxfh1A6IPeruAQJqv2Ujf7YvYyuY7719FxKxF8vO6EUS7bA2GV3Z5FzuM0KpLv7XeqVp6%2F4WuWMA7mW4xsSXogafOO2UO%2BivlTzf51O5LEkCP1U0T5Ji46%2FdDtiZ6FZgdocOwZry9h0jN7h%2BVa7fYWOdEetdvj%2FuaOr5x1A%2FJyfg3k6w1%2BgfJlT6596Vj3YHC39JwxpWuQGeNOBwQz%2BKc70hra3MLfxa0RzqAQGs8N7HGvdnD7Y9krtQ8IY2QPWlEKhkdNg1hgMZAADAUwNwnrlYD1GTqV3cneA2%2F2ztYTKIUWbZKI0mSzBwahxzimDBAC0SarKA14xS5Zr%2BHxMI%2FpmkXLtJLsHMy0Xzc03Dn09VBk5brykIvIOPuMqSci2fCisQjewlLgze0wPLIU5COTxPUMC71lMZJ3XFIIGH6C%2BS5K02z1w3%2FeodB3JcJUSf1JjU1HH5rfWoMMA6EZLzzIBYMtE50hqgIThpIggIvAYlxHmYsiDLESSoC%2BQIM1ebI2wJAukB10yC6gyoM2UMUuglB4vH6XC%2FpsUOutAWtMX7rQMmBdfDiDFfXA1EKZgj%2FZb2ip29z9mtGDMP9k68ywjAL8PmUa3JbSbLzvWFctHQxuvkYF5WkgZmpvmHjEo1KnH4hnQ2VTWePZVKMY22dqECVoEhDb8IxpiWyr8uJ9SOBan5WsdAXbqrT%2F0QSwc9K1Nx2eGEaiHdDAfnk8lD39CGteI62W0x%2FwUjsHzQHSXGXDj6fh6aPbgwGGrgMwQeZqFUEuYUnQ5TOGRMhtrMCIPlCoITkioVARwCAKEMo%2BhKuB0D2Z7flPAWELgAo2FMQv9D9nyiezuMNb1RvFYNycqZqlLe%2B1DfYF1EIbqnP63FcalI1DI3CZfrtgr2CWebBQjOfjpCg8rv7pk2KrLPLRrC9XpRBcz%2BdKFyt%2F%2FqN%2BlN58g5obt7qdP4kt58%2F8TvbIujFeOyqzBNtL5HmynWD8E321nkVuiPAHt6GCHVrrI2Ih00GO7znt%2Foc6cj3k9LzFdtGN7wvV7Zdcycvr%2BVKKDSY3PA9LO2xPUqQd%2BZFxvLHVYRwn2nmpF%2FN60c4BJ%2BstRjttv0uc6nAnGc00nzKPsxb9CheTCwjCbuOof610mtNQuhwdltkLDzmUqcjDUplB46XsTZmHdcNURFDXPBZIYVpa6DX6pVY5uyigJJjvZtKn6b2ZPK9XBKacvmOpfIrT%2Btv18UXR394jmob72yfLE2OxQmzgMi8kAHuldKsTrDZfZM%2B9C7EFmC4BKsXzngBm1divzCAWCgg8yH%2BkU87jmB3Hjn%2B%2BFQswWRot6wjyJx1uAC5YTDQow6IYmnXpnVZR%2Fof4qMc6vD1xAF%2Fq%2Ba8PifZYjeP5b2kaVR6mKav67ZCABdOj%2F4x4ol3Z56ZQRexpowTo5Adrk6UMlGKh4zv75bfPn9%2BvU%2BAUoiQZ4ZJh2st4UYKTRs90KSgcRTwkyiKhlN%2BDsJWXgm3uYatdbZLw6mPzUqO2hLSWAS47hf%2BtfAVWZcWUVYQN%2FtYgoSB4av9bKQtYODjwuSSjDYjomquTZipJ1j5qTXqMbggz1cC7SyJIKloF%2FsIhrkQm1nAj6OqhwWxttmfDw9jiAD1Y8cDhHkmq2Vb91vMte1kI2UTEIDZbAWHx6JqERIASexxkvQ%2FjB8WAgBAv50slO0aq9CS2XKQUyE77e6kPUmssMskkw10pqcw9wqN5Ot8OqQ0LCtRufEZQAWQ7lG4AdtS7foA6ba6rMXaJsYfHlPru2Yff4HHcRrX14OSWnBSUhKsnZXU0zmglDvasgCZxEM%2BHDYcZEkAHHnzjFlicMjAplXtV6IUuChchI%2Bjx75pILFnfVvx8SO0OnIZJ9Bb0sqW39OW2DvPa%2FUu8IHLatWV1NVzVR0zVrylc32JyOmsL0aI7fpvlxTbbZPsoXTSlUmirafM5Y7YurPmfcVE88x9ZgYPU3pH4KSkgGMbjX%2FTum1DThMLgpoqE1RE0IWj2TazTRNCMC0NgPB5YhpP62vGGZUioDxq%2BGhqDo2Uv22jVR0nXi2%2BenybZcl40gHA8W4DEJ%2FPGRH4%2FLujN1zhP6DIB40%2By55VKd3LPkWbPpwmkulKsEMmOl6GxUgdJUSfZ4r5SPNRF6gFrv2IxpfbWic9YbGke7c9exomcOqrU1Td48pDliGR8YyE0xsGzhp4xTRx0oqMjJaggx79xLz08sldrpMMjfdGAcDVk7fGRTNMqK0fbXvqIziGn3iDn%2BbgnD%2BiZ7SWduFqDCw80vW1%2BnrFs3vzGJVr8Hw%3D%3D" linkTarget="_blank" id="Jg3intxD1ek4P_nfdZ0U-90">
          <mxCell style="whiteSpace=wrap;html=1;rounded=1;arcSize=50;align=center;verticalAlign=middle;strokeWidth=1;autosize=1;spacing=4;treeFolding=1;treeMoving=1;newEdgeStyle={&quot;edgeStyle&quot;:&quot;entityRelationEdgeStyle&quot;,&quot;startArrow&quot;:&quot;none&quot;,&quot;endArrow&quot;:&quot;none&quot;,&quot;segment&quot;:10,&quot;curved&quot;:1,&quot;sourcePerimeterSpacing&quot;:0,&quot;targetPerimeterSpacing&quot;:0};fillColor=#dae8fc;strokeColor=#6c8ebf;" vertex="1" visible="0" parent="1">
            <mxGeometry x="710" y="-1073" width="90" height="30" as="geometry" />
          </mxCell>
        </UserObject>
        <mxCell id="Jg3intxD1ek4P_nfdZ0U-91" value="" style="edgeStyle=entityRelationEdgeStyle;startArrow=none;endArrow=none;segment=10;curved=1;sourcePerimeterSpacing=0;targetPerimeterSpacing=0;rounded=0;fillColor=#e1d5e7;strokeColor=#9673a6;exitX=1;exitY=0.5;exitDx=0;exitDy=0;" edge="1" visible="0" target="Jg3intxD1ek4P_nfdZ0U-90" parent="1" source="Jg3intxD1ek4P_nfdZ0U-100">
          <mxGeometry relative="1" as="geometry">
            <mxPoint x="640" y="-805" as="sourcePoint" />
          </mxGeometry>
        </mxCell>
        <mxCell id="Jg3intxD1ek4P_nfdZ0U-94" value="动态/静态链接库" style="whiteSpace=wrap;html=1;rounded=1;arcSize=50;align=center;verticalAlign=middle;strokeWidth=1;autosize=1;spacing=4;treeFolding=1;treeMoving=1;newEdgeStyle={&quot;edgeStyle&quot;:&quot;entityRelationEdgeStyle&quot;,&quot;startArrow&quot;:&quot;none&quot;,&quot;endArrow&quot;:&quot;none&quot;,&quot;segment&quot;:10,&quot;curved&quot;:1,&quot;sourcePerimeterSpacing&quot;:0,&quot;targetPerimeterSpacing&quot;:0};fillColor=#dae8fc;strokeColor=#6c8ebf;" vertex="1" visible="0" parent="1">
          <mxGeometry x="710" y="-980" width="130" height="30" as="geometry" />
        </mxCell>
        <mxCell id="Jg3intxD1ek4P_nfdZ0U-95" value="" style="edgeStyle=entityRelationEdgeStyle;startArrow=none;endArrow=none;segment=10;curved=1;sourcePerimeterSpacing=0;targetPerimeterSpacing=0;rounded=0;fillColor=#e1d5e7;strokeColor=#9673a6;exitX=1;exitY=0.5;exitDx=0;exitDy=0;" edge="1" visible="0" target="Jg3intxD1ek4P_nfdZ0U-94" parent="1" source="Jg3intxD1ek4P_nfdZ0U-100">
          <mxGeometry relative="1" as="geometry">
            <mxPoint x="640" y="-805" as="sourcePoint" />
          </mxGeometry>
        </mxCell>
        <mxCell id="Jg3intxD1ek4P_nfdZ0U-97" value="C/C++传参启动" style="whiteSpace=wrap;html=1;rounded=1;arcSize=50;align=center;verticalAlign=middle;strokeWidth=1;autosize=1;spacing=4;treeFolding=1;treeMoving=1;newEdgeStyle={&quot;edgeStyle&quot;:&quot;entityRelationEdgeStyle&quot;,&quot;startArrow&quot;:&quot;none&quot;,&quot;endArrow&quot;:&quot;none&quot;,&quot;segment&quot;:10,&quot;curved&quot;:1,&quot;sourcePerimeterSpacing&quot;:0,&quot;targetPerimeterSpacing&quot;:0};fillColor=#dae8fc;strokeColor=#6c8ebf;" vertex="1" visible="0" parent="1">
          <mxGeometry x="710" y="-1027" width="130" height="30" as="geometry" />
        </mxCell>
        <mxCell id="Jg3intxD1ek4P_nfdZ0U-98" value="" style="edgeStyle=entityRelationEdgeStyle;startArrow=none;endArrow=none;segment=10;curved=1;sourcePerimeterSpacing=0;targetPerimeterSpacing=0;rounded=0;fillColor=#e1d5e7;strokeColor=#9673a6;exitX=1;exitY=0.5;exitDx=0;exitDy=0;" edge="1" visible="0" target="Jg3intxD1ek4P_nfdZ0U-97" parent="1" source="Jg3intxD1ek4P_nfdZ0U-100">
          <mxGeometry relative="1" as="geometry">
            <mxPoint x="640" y="-805" as="sourcePoint" />
            <Array as="points">
              <mxPoint x="530" y="-840" />
            </Array>
          </mxGeometry>
        </mxCell>
        <mxCell id="Jg3intxD1ek4P_nfdZ0U-100" value="C/C++" style="whiteSpace=wrap;html=1;rounded=1;arcSize=50;align=center;verticalAlign=middle;strokeWidth=1;autosize=1;spacing=4;treeFolding=1;treeMoving=1;newEdgeStyle={&quot;edgeStyle&quot;:&quot;entityRelationEdgeStyle&quot;,&quot;startArrow&quot;:&quot;none&quot;,&quot;endArrow&quot;:&quot;none&quot;,&quot;segment&quot;:10,&quot;curved&quot;:1,&quot;sourcePerimeterSpacing&quot;:0,&quot;targetPerimeterSpacing&quot;:0};fillColor=#dae8fc;strokeColor=#6c8ebf;" vertex="1" visible="0" collapsed="1" parent="1">
          <mxGeometry x="450" y="-1050" width="80" height="30" as="geometry" />
        </mxCell>
        <mxCell id="Jg3intxD1ek4P_nfdZ0U-101" value="Python" style="whiteSpace=wrap;html=1;rounded=1;arcSize=50;align=center;verticalAlign=middle;strokeWidth=1;autosize=1;spacing=4;treeFolding=1;treeMoving=1;newEdgeStyle={&quot;edgeStyle&quot;:&quot;entityRelationEdgeStyle&quot;,&quot;startArrow&quot;:&quot;none&quot;,&quot;endArrow&quot;:&quot;none&quot;,&quot;segment&quot;:10,&quot;curved&quot;:1,&quot;sourcePerimeterSpacing&quot;:0,&quot;targetPerimeterSpacing&quot;:0};fillColor=#dae8fc;strokeColor=#6c8ebf;" vertex="1" visible="0" collapsed="1" parent="1">
          <mxGeometry x="450" y="-888" width="80" height="30" as="geometry" />
        </mxCell>
        <mxCell id="Jg3intxD1ek4P_nfdZ0U-102" value="GUI" style="whiteSpace=wrap;html=1;rounded=1;arcSize=50;align=center;verticalAlign=middle;strokeWidth=1;autosize=1;spacing=4;treeFolding=1;treeMoving=1;newEdgeStyle={&quot;edgeStyle&quot;:&quot;entityRelationEdgeStyle&quot;,&quot;startArrow&quot;:&quot;none&quot;,&quot;endArrow&quot;:&quot;none&quot;,&quot;segment&quot;:10,&quot;curved&quot;:1,&quot;sourcePerimeterSpacing&quot;:0,&quot;targetPerimeterSpacing&quot;:0};fillColor=#dae8fc;strokeColor=#6c8ebf;" vertex="1" visible="0" collapsed="1" parent="1">
          <mxGeometry x="605" y="-973" width="70" height="30" as="geometry" />
        </mxCell>
        <mxCell id="Jg3intxD1ek4P_nfdZ0U-103" value="联合编程" style="whiteSpace=wrap;html=1;rounded=1;arcSize=50;align=center;verticalAlign=middle;strokeWidth=1;autosize=1;spacing=4;treeFolding=1;treeMoving=1;newEdgeStyle={&quot;edgeStyle&quot;:&quot;entityRelationEdgeStyle&quot;,&quot;startArrow&quot;:&quot;none&quot;,&quot;endArrow&quot;:&quot;none&quot;,&quot;segment&quot;:10,&quot;curved&quot;:1,&quot;sourcePerimeterSpacing&quot;:0,&quot;targetPerimeterSpacing&quot;:0};fillColor=#dae8fc;strokeColor=#6c8ebf;" vertex="1" visible="0" collapsed="1" parent="1">
          <mxGeometry x="600" y="-888" width="90" height="30" as="geometry" />
        </mxCell>
        <mxCell id="Jg3intxD1ek4P_nfdZ0U-104" value="打包发布" style="whiteSpace=wrap;html=1;rounded=1;arcSize=50;align=center;verticalAlign=middle;strokeWidth=1;autosize=1;spacing=4;treeFolding=1;treeMoving=1;newEdgeStyle={&quot;edgeStyle&quot;:&quot;entityRelationEdgeStyle&quot;,&quot;startArrow&quot;:&quot;none&quot;,&quot;endArrow&quot;:&quot;none&quot;,&quot;segment&quot;:10,&quot;curved&quot;:1,&quot;sourcePerimeterSpacing&quot;:0,&quot;targetPerimeterSpacing&quot;:0};fillColor=#dae8fc;strokeColor=#6c8ebf;" vertex="1" visible="0" collapsed="1" parent="1">
          <mxGeometry x="605" y="-803" width="90" height="30" as="geometry" />
        </mxCell>
        <mxCell id="Jg3intxD1ek4P_nfdZ0U-106" value="" style="edgeStyle=entityRelationEdgeStyle;startArrow=none;endArrow=none;segment=10;curved=1;sourcePerimeterSpacing=0;targetPerimeterSpacing=0;rounded=0;fillColor=#e1d5e7;strokeColor=#9673a6;exitX=1;exitY=0.5;exitDx=0;exitDy=0;entryX=0;entryY=0.5;entryDx=0;entryDy=0;" edge="1" visible="0" parent="1" source="Jg3intxD1ek4P_nfdZ0U-80" target="Jg3intxD1ek4P_nfdZ0U-100">
          <mxGeometry relative="1" as="geometry">
            <mxPoint x="402.5" y="-786" as="sourcePoint" />
            <mxPoint x="517.5" y="-784" as="targetPoint" />
          </mxGeometry>
        </mxCell>
        <mxCell id="Jg3intxD1ek4P_nfdZ0U-107" value="" style="edgeStyle=entityRelationEdgeStyle;startArrow=none;endArrow=none;segment=10;curved=1;sourcePerimeterSpacing=0;targetPerimeterSpacing=0;rounded=0;fillColor=#e1d5e7;strokeColor=#9673a6;exitX=1;exitY=0.5;exitDx=0;exitDy=0;entryX=0;entryY=0.5;entryDx=0;entryDy=0;" edge="1" visible="0" parent="1" source="Jg3intxD1ek4P_nfdZ0U-80" target="Jg3intxD1ek4P_nfdZ0U-101">
          <mxGeometry relative="1" as="geometry">
            <mxPoint x="470" y="-772" as="sourcePoint" />
            <mxPoint x="585" y="-770" as="targetPoint" />
          </mxGeometry>
        </mxCell>
        <mxCell id="Jg3intxD1ek4P_nfdZ0U-108" value="" style="edgeStyle=entityRelationEdgeStyle;startArrow=none;endArrow=none;segment=10;curved=1;sourcePerimeterSpacing=0;targetPerimeterSpacing=0;rounded=0;fillColor=#e1d5e7;strokeColor=#9673a6;exitX=1;exitY=0.5;exitDx=0;exitDy=0;entryX=0;entryY=0.5;entryDx=0;entryDy=0;" edge="1" visible="0" parent="1" source="Jg3intxD1ek4P_nfdZ0U-101" target="Jg3intxD1ek4P_nfdZ0U-104">
          <mxGeometry relative="1" as="geometry">
            <mxPoint x="600" y="-770" as="sourcePoint" />
            <mxPoint x="715" y="-768" as="targetPoint" />
          </mxGeometry>
        </mxCell>
        <mxCell id="Jg3intxD1ek4P_nfdZ0U-109" value="" style="edgeStyle=entityRelationEdgeStyle;startArrow=none;endArrow=none;segment=10;curved=1;sourcePerimeterSpacing=0;targetPerimeterSpacing=0;rounded=0;fillColor=#e1d5e7;strokeColor=#9673a6;exitX=1;exitY=0.5;exitDx=0;exitDy=0;entryX=0;entryY=0.5;entryDx=0;entryDy=0;" edge="1" visible="0" parent="1" source="Jg3intxD1ek4P_nfdZ0U-101" target="Jg3intxD1ek4P_nfdZ0U-102">
          <mxGeometry relative="1" as="geometry">
            <mxPoint x="440" y="-730" as="sourcePoint" />
            <mxPoint x="555" y="-728" as="targetPoint" />
          </mxGeometry>
        </mxCell>
        <mxCell id="Jg3intxD1ek4P_nfdZ0U-110" value="" style="edgeStyle=entityRelationEdgeStyle;startArrow=none;endArrow=none;segment=10;curved=1;sourcePerimeterSpacing=0;targetPerimeterSpacing=0;rounded=0;fillColor=#e1d5e7;strokeColor=#9673a6;exitX=1;exitY=0.5;exitDx=0;exitDy=0;entryX=0;entryY=0.5;entryDx=0;entryDy=0;" edge="1" visible="0" parent="1" source="Jg3intxD1ek4P_nfdZ0U-101" target="Jg3intxD1ek4P_nfdZ0U-103">
          <mxGeometry relative="1" as="geometry">
            <mxPoint x="595" y="-786" as="sourcePoint" />
            <mxPoint x="710" y="-784" as="targetPoint" />
          </mxGeometry>
        </mxCell>
        <mxCell id="Jg3intxD1ek4P_nfdZ0U-111" value="效率办公" style="whiteSpace=wrap;html=1;rounded=1;arcSize=50;align=center;verticalAlign=middle;strokeWidth=1;autosize=1;spacing=4;treeFolding=1;treeMoving=1;newEdgeStyle={&quot;edgeStyle&quot;:&quot;entityRelationEdgeStyle&quot;,&quot;startArrow&quot;:&quot;none&quot;,&quot;endArrow&quot;:&quot;none&quot;,&quot;segment&quot;:10,&quot;curved&quot;:1,&quot;sourcePerimeterSpacing&quot;:0,&quot;targetPerimeterSpacing&quot;:0};fillColor=#dae8fc;strokeColor=#6c8ebf;" vertex="1" visible="0" collapsed="1" parent="1">
          <mxGeometry x="450" y="-750" width="90" height="30" as="geometry" />
        </mxCell>
        <mxCell id="Jg3intxD1ek4P_nfdZ0U-112" value="" style="edgeStyle=entityRelationEdgeStyle;startArrow=none;endArrow=none;segment=10;curved=1;sourcePerimeterSpacing=0;targetPerimeterSpacing=0;rounded=0;fillColor=#e1d5e7;strokeColor=#9673a6;exitX=1;exitY=0.5;exitDx=0;exitDy=0;entryX=0;entryY=0.5;entryDx=0;entryDy=0;" edge="1" visible="0" parent="1" source="Jg3intxD1ek4P_nfdZ0U-80" target="Jg3intxD1ek4P_nfdZ0U-111">
          <mxGeometry relative="1" as="geometry">
            <mxPoint x="400" y="-612" as="sourcePoint" />
            <mxPoint x="480" y="-750" as="targetPoint" />
          </mxGeometry>
        </mxCell>
        <mxCell id="Jg3intxD1ek4P_nfdZ0U-113" value="版本管理" style="whiteSpace=wrap;html=1;rounded=1;arcSize=50;align=center;verticalAlign=middle;strokeWidth=1;autosize=1;spacing=4;treeFolding=1;treeMoving=1;newEdgeStyle={&quot;edgeStyle&quot;:&quot;entityRelationEdgeStyle&quot;,&quot;startArrow&quot;:&quot;none&quot;,&quot;endArrow&quot;:&quot;none&quot;,&quot;segment&quot;:10,&quot;curved&quot;:1,&quot;sourcePerimeterSpacing&quot;:0,&quot;targetPerimeterSpacing&quot;:0};fillColor=#dae8fc;strokeColor=#6c8ebf;" vertex="1" visible="0" collapsed="1" parent="1">
          <mxGeometry x="600" y="-800" width="90" height="30" as="geometry" />
        </mxCell>
        <mxCell id="Jg3intxD1ek4P_nfdZ0U-114" value="脚本" style="whiteSpace=wrap;html=1;rounded=1;arcSize=50;align=center;verticalAlign=middle;strokeWidth=1;autosize=1;spacing=4;treeFolding=1;treeMoving=1;newEdgeStyle={&quot;edgeStyle&quot;:&quot;entityRelationEdgeStyle&quot;,&quot;startArrow&quot;:&quot;none&quot;,&quot;endArrow&quot;:&quot;none&quot;,&quot;segment&quot;:10,&quot;curved&quot;:1,&quot;sourcePerimeterSpacing&quot;:0,&quot;targetPerimeterSpacing&quot;:0};fillColor=#dae8fc;strokeColor=#6c8ebf;" vertex="1" visible="0" collapsed="1" parent="1">
          <mxGeometry x="600" y="-700" width="70" height="30" as="geometry" />
        </mxCell>
        <mxCell id="Jg3intxD1ek4P_nfdZ0U-115" value="" style="edgeStyle=entityRelationEdgeStyle;startArrow=none;endArrow=none;segment=10;curved=1;sourcePerimeterSpacing=0;targetPerimeterSpacing=0;rounded=0;fillColor=#e1d5e7;strokeColor=#9673a6;exitX=1;exitY=0.5;exitDx=0;exitDy=0;entryX=0;entryY=0.5;entryDx=0;entryDy=0;" edge="1" visible="0" parent="1" source="Jg3intxD1ek4P_nfdZ0U-111" target="Jg3intxD1ek4P_nfdZ0U-113">
          <mxGeometry relative="1" as="geometry">
            <mxPoint x="600" y="-770" as="sourcePoint" />
            <mxPoint x="670" y="-760" as="targetPoint" />
          </mxGeometry>
        </mxCell>
        <mxCell id="Jg3intxD1ek4P_nfdZ0U-116" value="" style="edgeStyle=entityRelationEdgeStyle;startArrow=none;endArrow=none;segment=10;curved=1;sourcePerimeterSpacing=0;targetPerimeterSpacing=0;rounded=0;fillColor=#e1d5e7;strokeColor=#9673a6;exitX=1;exitY=0.5;exitDx=0;exitDy=0;entryX=0;entryY=0.5;entryDx=0;entryDy=0;" edge="1" visible="0" parent="1" source="Jg3intxD1ek4P_nfdZ0U-111" target="Jg3intxD1ek4P_nfdZ0U-114">
          <mxGeometry relative="1" as="geometry">
            <mxPoint x="600" y="-710" as="sourcePoint" />
            <mxPoint x="670" y="-700" as="targetPoint" />
          </mxGeometry>
        </mxCell>
        <mxCell id="Jg3intxD1ek4P_nfdZ0U-117" value="C API" style="whiteSpace=wrap;html=1;rounded=1;arcSize=50;align=center;verticalAlign=middle;strokeWidth=1;autosize=1;spacing=4;treeFolding=1;treeMoving=1;newEdgeStyle={&quot;edgeStyle&quot;:&quot;entityRelationEdgeStyle&quot;,&quot;startArrow&quot;:&quot;none&quot;,&quot;endArrow&quot;:&quot;none&quot;,&quot;segment&quot;:10,&quot;curved&quot;:1,&quot;sourcePerimeterSpacing&quot;:0,&quot;targetPerimeterSpacing&quot;:0};fillColor=#dae8fc;strokeColor=#6c8ebf;flipH=0;flipV=0;" vertex="1" visible="0" parent="1">
          <mxGeometry x="830" y="-963" width="80" height="30" as="geometry" />
        </mxCell>
        <mxCell id="Jg3intxD1ek4P_nfdZ0U-118" value="Pybind 11" style="whiteSpace=wrap;html=1;rounded=1;arcSize=50;align=center;verticalAlign=middle;strokeWidth=1;autosize=1;spacing=4;treeFolding=1;treeMoving=1;newEdgeStyle={&quot;edgeStyle&quot;:&quot;entityRelationEdgeStyle&quot;,&quot;startArrow&quot;:&quot;none&quot;,&quot;endArrow&quot;:&quot;none&quot;,&quot;segment&quot;:10,&quot;curved&quot;:1,&quot;sourcePerimeterSpacing&quot;:0,&quot;targetPerimeterSpacing&quot;:0};fillColor=#dae8fc;strokeColor=#6c8ebf;flipH=0;flipV=0;" vertex="1" visible="0" parent="1">
          <mxGeometry x="830" y="-863" width="80" height="30" as="geometry" />
        </mxCell>
        <mxCell id="Jg3intxD1ek4P_nfdZ0U-119" value="Ctypes" style="whiteSpace=wrap;html=1;rounded=1;arcSize=50;align=center;verticalAlign=middle;strokeWidth=1;autosize=1;spacing=4;treeFolding=1;treeMoving=1;newEdgeStyle={&quot;edgeStyle&quot;:&quot;entityRelationEdgeStyle&quot;,&quot;startArrow&quot;:&quot;none&quot;,&quot;endArrow&quot;:&quot;none&quot;,&quot;segment&quot;:10,&quot;curved&quot;:1,&quot;sourcePerimeterSpacing&quot;:0,&quot;targetPerimeterSpacing&quot;:0};fillColor=#dae8fc;strokeColor=#6c8ebf;flipH=0;flipV=0;" vertex="1" visible="0" parent="1">
          <mxGeometry x="830" y="-913" width="80" height="30" as="geometry" />
        </mxCell>
        <mxCell id="Jg3intxD1ek4P_nfdZ0U-120" value="SWIG" style="whiteSpace=wrap;html=1;rounded=1;arcSize=50;align=center;verticalAlign=middle;strokeWidth=1;autosize=1;spacing=4;treeFolding=1;treeMoving=1;newEdgeStyle={&quot;edgeStyle&quot;:&quot;entityRelationEdgeStyle&quot;,&quot;startArrow&quot;:&quot;none&quot;,&quot;endArrow&quot;:&quot;none&quot;,&quot;segment&quot;:10,&quot;curved&quot;:1,&quot;sourcePerimeterSpacing&quot;:0,&quot;targetPerimeterSpacing&quot;:0};fillColor=#dae8fc;strokeColor=#6c8ebf;flipH=0;flipV=0;" vertex="1" visible="0" parent="1">
          <mxGeometry x="830" y="-813" width="80" height="30" as="geometry" />
        </mxCell>
        <mxCell id="Jg3intxD1ek4P_nfdZ0U-121" value="" style="edgeStyle=entityRelationEdgeStyle;startArrow=none;endArrow=none;segment=10;curved=1;sourcePerimeterSpacing=0;targetPerimeterSpacing=0;rounded=0;fillColor=#e1d5e7;strokeColor=#9673a6;exitX=1;exitY=0.5;exitDx=0;exitDy=0;entryX=0;entryY=0.5;entryDx=0;entryDy=0;" edge="1" visible="0" parent="1" source="Jg3intxD1ek4P_nfdZ0U-103" target="Jg3intxD1ek4P_nfdZ0U-119">
          <mxGeometry relative="1" as="geometry">
            <mxPoint x="830" y="-998" as="sourcePoint" />
            <mxPoint x="1010" y="-1050" as="targetPoint" />
          </mxGeometry>
        </mxCell>
        <mxCell id="Jg3intxD1ek4P_nfdZ0U-122" value="" style="edgeStyle=entityRelationEdgeStyle;startArrow=none;endArrow=none;segment=10;curved=1;sourcePerimeterSpacing=0;targetPerimeterSpacing=0;rounded=0;fillColor=#e1d5e7;strokeColor=#9673a6;exitX=1;exitY=0.5;exitDx=0;exitDy=0;entryX=0;entryY=0.5;entryDx=0;entryDy=0;" edge="1" visible="0" parent="1" source="Jg3intxD1ek4P_nfdZ0U-103" target="Jg3intxD1ek4P_nfdZ0U-117">
          <mxGeometry relative="1" as="geometry">
            <mxPoint x="840" y="-976" as="sourcePoint" />
            <mxPoint x="1020" y="-1028" as="targetPoint" />
          </mxGeometry>
        </mxCell>
        <mxCell id="Jg3intxD1ek4P_nfdZ0U-123" value="" style="edgeStyle=entityRelationEdgeStyle;startArrow=none;endArrow=none;segment=10;curved=1;sourcePerimeterSpacing=0;targetPerimeterSpacing=0;rounded=0;fillColor=#e1d5e7;strokeColor=#9673a6;exitX=1;exitY=0.5;exitDx=0;exitDy=0;entryX=0;entryY=0.5;entryDx=0;entryDy=0;" edge="1" visible="0" parent="1" source="Jg3intxD1ek4P_nfdZ0U-103" target="Jg3intxD1ek4P_nfdZ0U-120">
          <mxGeometry relative="1" as="geometry">
            <mxPoint x="820" y="-1038" as="sourcePoint" />
            <mxPoint x="1000" y="-1090" as="targetPoint" />
          </mxGeometry>
        </mxCell>
        <mxCell id="Jg3intxD1ek4P_nfdZ0U-124" value="" style="edgeStyle=entityRelationEdgeStyle;startArrow=none;endArrow=none;segment=10;curved=1;sourcePerimeterSpacing=0;targetPerimeterSpacing=0;rounded=0;fillColor=#e1d5e7;strokeColor=#9673a6;exitX=1;exitY=0.5;exitDx=0;exitDy=0;entryX=0;entryY=0.5;entryDx=0;entryDy=0;" edge="1" visible="0" parent="1" source="Jg3intxD1ek4P_nfdZ0U-103" target="Jg3intxD1ek4P_nfdZ0U-118">
          <mxGeometry relative="1" as="geometry">
            <mxPoint x="830" y="-1016" as="sourcePoint" />
            <mxPoint x="1010" y="-1068" as="targetPoint" />
          </mxGeometry>
        </mxCell>
        <mxCell id="Jg3intxD1ek4P_nfdZ0U-125" value="Pyside 2 / Pyside 6" style="whiteSpace=wrap;html=1;rounded=1;arcSize=50;align=center;verticalAlign=middle;strokeWidth=1;autosize=1;spacing=4;treeFolding=1;treeMoving=1;newEdgeStyle={&quot;edgeStyle&quot;:&quot;entityRelationEdgeStyle&quot;,&quot;startArrow&quot;:&quot;none&quot;,&quot;endArrow&quot;:&quot;none&quot;,&quot;segment&quot;:10,&quot;curved&quot;:1,&quot;sourcePerimeterSpacing&quot;:0,&quot;targetPerimeterSpacing&quot;:0};fillColor=#dae8fc;strokeColor=#6c8ebf;" vertex="1" visible="0" parent="1">
          <mxGeometry x="730" y="-993" width="150" height="30" as="geometry" />
        </mxCell>
        <mxCell id="Jg3intxD1ek4P_nfdZ0U-127" value="PYQT" style="whiteSpace=wrap;html=1;rounded=1;arcSize=50;align=center;verticalAlign=middle;strokeWidth=1;autosize=1;spacing=4;treeFolding=1;treeMoving=1;newEdgeStyle={&quot;edgeStyle&quot;:&quot;entityRelationEdgeStyle&quot;,&quot;startArrow&quot;:&quot;none&quot;,&quot;endArrow&quot;:&quot;none&quot;,&quot;segment&quot;:10,&quot;curved&quot;:1,&quot;sourcePerimeterSpacing&quot;:0,&quot;targetPerimeterSpacing&quot;:0};fillColor=#dae8fc;strokeColor=#6c8ebf;" vertex="1" visible="0" parent="1">
          <mxGeometry x="730" y="-953" width="80" height="30" as="geometry" />
        </mxCell>
        <mxCell id="Jg3intxD1ek4P_nfdZ0U-128" value="" style="edgeStyle=entityRelationEdgeStyle;startArrow=none;endArrow=none;segment=10;curved=1;sourcePerimeterSpacing=0;targetPerimeterSpacing=0;rounded=0;fillColor=#e1d5e7;strokeColor=#9673a6;exitX=1;exitY=0.5;exitDx=0;exitDy=0;entryX=0;entryY=0.5;entryDx=0;entryDy=0;" edge="1" visible="0" parent="1" source="Jg3intxD1ek4P_nfdZ0U-102" target="Jg3intxD1ek4P_nfdZ0U-127">
          <mxGeometry relative="1" as="geometry">
            <mxPoint x="740" y="-1050" as="sourcePoint" />
            <mxPoint x="950" y="-1102" as="targetPoint" />
          </mxGeometry>
        </mxCell>
        <mxCell id="Jg3intxD1ek4P_nfdZ0U-129" value="" style="edgeStyle=entityRelationEdgeStyle;startArrow=none;endArrow=none;segment=10;curved=1;sourcePerimeterSpacing=0;targetPerimeterSpacing=0;rounded=0;fillColor=#e1d5e7;strokeColor=#9673a6;exitX=1;exitY=0.5;exitDx=0;exitDy=0;entryX=0;entryY=0.5;entryDx=0;entryDy=0;" edge="1" visible="0" parent="1" source="Jg3intxD1ek4P_nfdZ0U-86" target="Jg3intxD1ek4P_nfdZ0U-146">
          <mxGeometry relative="1" as="geometry">
            <mxPoint x="180" y="-112" as="sourcePoint" />
            <mxPoint x="240" y="-115" as="targetPoint" />
            <Array as="points">
              <mxPoint x="230" y="-105" />
            </Array>
          </mxGeometry>
        </mxCell>
        <mxCell id="Jg3intxD1ek4P_nfdZ0U-130" value="" style="edgeStyle=entityRelationEdgeStyle;startArrow=none;endArrow=none;segment=10;curved=1;sourcePerimeterSpacing=0;targetPerimeterSpacing=0;rounded=0;fillColor=#e1d5e7;strokeColor=#9673a6;exitX=1;exitY=0.5;exitDx=0;exitDy=0;entryX=0;entryY=0.5;entryDx=0;entryDy=0;" edge="1" visible="0" parent="1" source="Jg3intxD1ek4P_nfdZ0U-102" target="Jg3intxD1ek4P_nfdZ0U-125">
          <mxGeometry relative="1" as="geometry">
            <mxPoint x="749" y="-1020" as="sourcePoint" />
            <mxPoint x="850" y="-970" as="targetPoint" />
          </mxGeometry>
        </mxCell>
        <mxCell id="Jg3intxD1ek4P_nfdZ0U-131" value="SVN" style="whiteSpace=wrap;html=1;rounded=1;arcSize=50;align=center;verticalAlign=middle;strokeWidth=1;autosize=1;spacing=4;treeFolding=1;treeMoving=1;newEdgeStyle={&quot;edgeStyle&quot;:&quot;entityRelationEdgeStyle&quot;,&quot;startArrow&quot;:&quot;none&quot;,&quot;endArrow&quot;:&quot;none&quot;,&quot;segment&quot;:10,&quot;curved&quot;:1,&quot;sourcePerimeterSpacing&quot;:0,&quot;targetPerimeterSpacing&quot;:0};fillColor=#dae8fc;strokeColor=#6c8ebf;" vertex="1" visible="0" collapsed="1" parent="1">
          <mxGeometry x="760" y="-830" width="70" height="30" as="geometry" />
        </mxCell>
        <mxCell id="Jg3intxD1ek4P_nfdZ0U-133" value="Git" style="whiteSpace=wrap;html=1;rounded=1;arcSize=50;align=center;verticalAlign=middle;strokeWidth=1;autosize=1;spacing=4;treeFolding=1;treeMoving=1;newEdgeStyle={&quot;edgeStyle&quot;:&quot;entityRelationEdgeStyle&quot;,&quot;startArrow&quot;:&quot;none&quot;,&quot;endArrow&quot;:&quot;none&quot;,&quot;segment&quot;:10,&quot;curved&quot;:1,&quot;sourcePerimeterSpacing&quot;:0,&quot;targetPerimeterSpacing&quot;:0};fillColor=#dae8fc;strokeColor=#6c8ebf;" vertex="1" visible="0" collapsed="1" parent="1">
          <mxGeometry x="760" y="-770" width="60" height="30" as="geometry" />
        </mxCell>
        <mxCell id="Jg3intxD1ek4P_nfdZ0U-134" value="AutoHotkey" style="whiteSpace=wrap;html=1;rounded=1;arcSize=50;align=center;verticalAlign=middle;strokeWidth=1;autosize=1;spacing=4;treeFolding=1;treeMoving=1;newEdgeStyle={&quot;edgeStyle&quot;:&quot;entityRelationEdgeStyle&quot;,&quot;startArrow&quot;:&quot;none&quot;,&quot;endArrow&quot;:&quot;none&quot;,&quot;segment&quot;:10,&quot;curved&quot;:1,&quot;sourcePerimeterSpacing&quot;:0,&quot;targetPerimeterSpacing&quot;:0};fillColor=#dae8fc;strokeColor=#6c8ebf;" vertex="1" visible="0" collapsed="1" parent="1">
          <mxGeometry x="760" y="-700" width="110" height="30" as="geometry" />
        </mxCell>
        <mxCell id="Jg3intxD1ek4P_nfdZ0U-135" value="" style="edgeStyle=entityRelationEdgeStyle;startArrow=none;endArrow=none;segment=10;curved=1;sourcePerimeterSpacing=0;targetPerimeterSpacing=0;rounded=0;fillColor=#e1d5e7;strokeColor=#9673a6;exitX=1;exitY=0.5;exitDx=0;exitDy=0;entryX=0;entryY=0.5;entryDx=0;entryDy=0;" edge="1" visible="0" parent="1" source="Jg3intxD1ek4P_nfdZ0U-113" target="Jg3intxD1ek4P_nfdZ0U-131">
          <mxGeometry relative="1" as="geometry">
            <mxPoint x="690" y="-800" as="sourcePoint" />
            <mxPoint x="750" y="-830" as="targetPoint" />
          </mxGeometry>
        </mxCell>
        <mxCell id="Jg3intxD1ek4P_nfdZ0U-137" value="" style="edgeStyle=entityRelationEdgeStyle;startArrow=none;endArrow=none;segment=10;curved=1;sourcePerimeterSpacing=0;targetPerimeterSpacing=0;rounded=0;fillColor=#e1d5e7;strokeColor=#9673a6;exitX=1;exitY=0.5;exitDx=0;exitDy=0;entryX=0;entryY=0.5;entryDx=0;entryDy=0;" edge="1" visible="0" parent="1" source="Jg3intxD1ek4P_nfdZ0U-86" target="Jg3intxD1ek4P_nfdZ0U-142">
          <mxGeometry relative="1" as="geometry">
            <mxPoint x="200" y="-220" as="sourcePoint" />
            <mxPoint x="260" y="-250" as="targetPoint" />
          </mxGeometry>
        </mxCell>
        <mxCell id="Jg3intxD1ek4P_nfdZ0U-139" value="" style="edgeStyle=entityRelationEdgeStyle;startArrow=none;endArrow=none;segment=10;curved=1;sourcePerimeterSpacing=0;targetPerimeterSpacing=0;rounded=0;fillColor=#e1d5e7;strokeColor=#9673a6;exitX=1;exitY=0.5;exitDx=0;exitDy=0;entryX=0;entryY=0.5;entryDx=0;entryDy=0;" edge="1" visible="0" parent="1" source="Jg3intxD1ek4P_nfdZ0U-114" target="Jg3intxD1ek4P_nfdZ0U-134">
          <mxGeometry relative="1" as="geometry">
            <mxPoint x="670" y="-650" as="sourcePoint" />
            <mxPoint x="730" y="-680" as="targetPoint" />
          </mxGeometry>
        </mxCell>
        <mxCell id="Jg3intxD1ek4P_nfdZ0U-140" value="" style="edgeStyle=entityRelationEdgeStyle;startArrow=none;endArrow=none;segment=10;curved=1;sourcePerimeterSpacing=0;targetPerimeterSpacing=0;rounded=0;fillColor=#e1d5e7;strokeColor=#9673a6;exitX=1;exitY=0.5;exitDx=0;exitDy=0;entryX=0;entryY=0.5;entryDx=0;entryDy=0;" edge="1" visible="0" parent="1" source="Jg3intxD1ek4P_nfdZ0U-113" target="Jg3intxD1ek4P_nfdZ0U-133">
          <mxGeometry relative="1" as="geometry">
            <mxPoint x="710" y="-715" as="sourcePoint" />
            <mxPoint x="770" y="-745" as="targetPoint" />
          </mxGeometry>
        </mxCell>
        <mxCell id="Jg3intxD1ek4P_nfdZ0U-148" style="edgeStyle=entityRelationEdgeStyle;rounded=0;orthogonalLoop=1;jettySize=auto;html=1;startArrow=none;endArrow=none;segment=10;curved=1;sourcePerimeterSpacing=0;targetPerimeterSpacing=0;exitX=0;exitY=0.5;exitDx=0;exitDy=0;entryX=1;entryY=0.5;entryDx=0;entryDy=0;fillColor=#e1d5e7;strokeColor=#9673a6;" edge="1" parent="1" source="Jg3intxD1ek4P_nfdZ0U-141" target="Jg3intxD1ek4P_nfdZ0U-83" visible="0">
          <mxGeometry relative="1" as="geometry" />
        </mxCell>
        <mxCell id="Jg3intxD1ek4P_nfdZ0U-141" value="ctypes" style="whiteSpace=wrap;html=1;rounded=1;arcSize=50;align=center;verticalAlign=middle;strokeWidth=1;autosize=1;spacing=4;treeFolding=1;treeMoving=1;newEdgeStyle={&quot;edgeStyle&quot;:&quot;entityRelationEdgeStyle&quot;,&quot;startArrow&quot;:&quot;none&quot;,&quot;endArrow&quot;:&quot;none&quot;,&quot;segment&quot;:10,&quot;curved&quot;:1,&quot;sourcePerimeterSpacing&quot;:0,&quot;targetPerimeterSpacing&quot;:0};fillColor=#dae8fc;strokeColor=#6c8ebf;" vertex="1" visible="0" parent="1">
          <mxGeometry x="395" y="-375" width="80" height="30" as="geometry" />
        </mxCell>
        <mxCell id="Jg3intxD1ek4P_nfdZ0U-142" value="各国语言编码" style="whiteSpace=wrap;html=1;rounded=1;arcSize=50;align=center;verticalAlign=middle;strokeWidth=1;autosize=1;spacing=4;treeFolding=1;treeMoving=1;newEdgeStyle={&quot;edgeStyle&quot;:&quot;entityRelationEdgeStyle&quot;,&quot;startArrow&quot;:&quot;none&quot;,&quot;endArrow&quot;:&quot;none&quot;,&quot;segment&quot;:10,&quot;curved&quot;:1,&quot;sourcePerimeterSpacing&quot;:0,&quot;targetPerimeterSpacing&quot;:0};fillColor=#dae8fc;strokeColor=#6c8ebf;" vertex="1" visible="0" collapsed="1" parent="1">
          <mxGeometry x="285" y="-240" width="120" height="30" as="geometry" />
        </mxCell>
        <mxCell id="Jg3intxD1ek4P_nfdZ0U-143" value="多线程" style="whiteSpace=wrap;html=1;rounded=1;arcSize=50;align=center;verticalAlign=middle;strokeWidth=1;autosize=1;spacing=4;treeFolding=1;treeMoving=1;newEdgeStyle={&quot;edgeStyle&quot;:&quot;entityRelationEdgeStyle&quot;,&quot;startArrow&quot;:&quot;none&quot;,&quot;endArrow&quot;:&quot;none&quot;,&quot;segment&quot;:10,&quot;curved&quot;:1,&quot;sourcePerimeterSpacing&quot;:0,&quot;targetPerimeterSpacing&quot;:0};fillColor=#dae8fc;strokeColor=#6c8ebf;" vertex="1" visible="0" parent="1">
          <mxGeometry x="285" y="-190" width="80" height="30" as="geometry" />
        </mxCell>
        <mxCell id="Jg3intxD1ek4P_nfdZ0U-146" value="函数复用优化" style="whiteSpace=wrap;html=1;rounded=1;arcSize=50;align=center;verticalAlign=middle;strokeWidth=1;autosize=1;spacing=4;treeFolding=1;treeMoving=1;newEdgeStyle={&quot;edgeStyle&quot;:&quot;entityRelationEdgeStyle&quot;,&quot;startArrow&quot;:&quot;none&quot;,&quot;endArrow&quot;:&quot;none&quot;,&quot;segment&quot;:10,&quot;curved&quot;:1,&quot;sourcePerimeterSpacing&quot;:0,&quot;targetPerimeterSpacing&quot;:0};fillColor=#dae8fc;strokeColor=#6c8ebf;" vertex="1" visible="0" parent="1">
          <mxGeometry x="285" y="-140" width="120" height="30" as="geometry" />
        </mxCell>
        <mxCell id="Jg3intxD1ek4P_nfdZ0U-147" value="增加更多描述子" style="whiteSpace=wrap;html=1;rounded=1;arcSize=50;align=center;verticalAlign=middle;strokeWidth=1;autosize=1;spacing=4;treeFolding=1;treeMoving=1;newEdgeStyle={&quot;edgeStyle&quot;:&quot;entityRelationEdgeStyle&quot;,&quot;startArrow&quot;:&quot;none&quot;,&quot;endArrow&quot;:&quot;none&quot;,&quot;segment&quot;:10,&quot;curved&quot;:1,&quot;sourcePerimeterSpacing&quot;:0,&quot;targetPerimeterSpacing&quot;:0};fillColor=#dae8fc;strokeColor=#6c8ebf;" vertex="1" visible="0" parent="1">
          <mxGeometry x="285" y="-90" width="130" height="30" as="geometry" />
        </mxCell>
        <mxCell id="Jg3intxD1ek4P_nfdZ0U-150" value="" style="edgeStyle=entityRelationEdgeStyle;startArrow=none;endArrow=none;segment=10;curved=1;sourcePerimeterSpacing=0;targetPerimeterSpacing=0;rounded=0;fillColor=#e1d5e7;strokeColor=#9673a6;exitX=1;exitY=0.5;exitDx=0;exitDy=0;entryX=0;entryY=0.5;entryDx=0;entryDy=0;" edge="1" visible="0" parent="1" source="Jg3intxD1ek4P_nfdZ0U-86" target="Jg3intxD1ek4P_nfdZ0U-143">
          <mxGeometry relative="1" as="geometry">
            <mxPoint x="190" y="-130" as="sourcePoint" />
            <mxPoint x="250" y="-160" as="targetPoint" />
          </mxGeometry>
        </mxCell>
        <mxCell id="Jg3intxD1ek4P_nfdZ0U-151" value="" style="edgeStyle=entityRelationEdgeStyle;startArrow=none;endArrow=none;segment=10;curved=1;sourcePerimeterSpacing=0;targetPerimeterSpacing=0;rounded=0;fillColor=#e1d5e7;strokeColor=#9673a6;exitX=1;exitY=0.5;exitDx=0;exitDy=0;entryX=0;entryY=0.5;entryDx=0;entryDy=0;" edge="1" visible="0" parent="1" source="Jg3intxD1ek4P_nfdZ0U-86" target="Jg3intxD1ek4P_nfdZ0U-147">
          <mxGeometry relative="1" as="geometry">
            <mxPoint x="170" y="-67" as="sourcePoint" />
            <mxPoint x="230" y="-70" as="targetPoint" />
            <Array as="points">
              <mxPoint x="220" y="-60" />
            </Array>
          </mxGeometry>
        </mxCell>
        <mxCell id="Jg3intxD1ek4P_nfdZ0U-152" value="" style="edgeStyle=entityRelationEdgeStyle;startArrow=none;endArrow=none;segment=10;curved=1;sourcePerimeterSpacing=0;targetPerimeterSpacing=0;rounded=0;exitX=1;exitY=0.5;exitDx=0;exitDy=0;fillColor=#e1d5e7;strokeColor=#9673a6;entryX=0;entryY=0.5;entryDx=0;entryDy=0;" edge="1" visible="0" parent="1" source="Jg3intxD1ek4P_nfdZ0U-5" target="Jg3intxD1ek4P_nfdZ0U-86">
          <mxGeometry relative="1" as="geometry">
            <mxPoint y="-270" as="sourcePoint" />
            <mxPoint x="120" y="-270" as="targetPoint" />
            <Array as="points">
              <mxPoint x="295.5" y="-465" />
            </Array>
          </mxGeometry>
        </mxCell>
        <mxCell id="Jg3intxD1ek4P_nfdZ0U-153" value="&lt;div&gt;&amp;nbsp;ISO/IEC 8859-1（定义编码标准）&lt;/div&gt;" style="whiteSpace=wrap;html=1;rounded=1;arcSize=50;align=center;verticalAlign=middle;strokeWidth=1;autosize=1;spacing=4;treeFolding=1;treeMoving=1;newEdgeStyle={&quot;edgeStyle&quot;:&quot;entityRelationEdgeStyle&quot;,&quot;startArrow&quot;:&quot;none&quot;,&quot;endArrow&quot;:&quot;none&quot;,&quot;segment&quot;:10,&quot;curved&quot;:1,&quot;sourcePerimeterSpacing&quot;:0,&quot;targetPerimeterSpacing&quot;:0};fillColor=#dae8fc;strokeColor=#6c8ebf;" vertex="1" visible="0" parent="1">
          <mxGeometry x="470" y="-217.5" width="230" height="30" as="geometry" />
        </mxCell>
        <mxCell id="Jg3intxD1ek4P_nfdZ0U-154" value="ISO 639-2（定义语言代码）" style="whiteSpace=wrap;html=1;rounded=1;arcSize=50;align=center;verticalAlign=middle;strokeWidth=1;autosize=1;spacing=4;treeFolding=1;treeMoving=1;newEdgeStyle={&quot;edgeStyle&quot;:&quot;entityRelationEdgeStyle&quot;,&quot;startArrow&quot;:&quot;none&quot;,&quot;endArrow&quot;:&quot;none&quot;,&quot;segment&quot;:10,&quot;curved&quot;:1,&quot;sourcePerimeterSpacing&quot;:0,&quot;targetPerimeterSpacing&quot;:0};fillColor=#dae8fc;strokeColor=#6c8ebf;" vertex="1" visible="0" parent="1">
          <mxGeometry x="470" y="-262.5" width="200" height="30" as="geometry" />
        </mxCell>
        <mxCell id="Jg3intxD1ek4P_nfdZ0U-155" style="edgeStyle=entityRelationEdgeStyle;rounded=0;orthogonalLoop=1;jettySize=auto;html=1;startArrow=none;endArrow=none;segment=10;curved=1;sourcePerimeterSpacing=0;targetPerimeterSpacing=0;exitX=1;exitY=0.5;exitDx=0;exitDy=0;fillColor=#e1d5e7;strokeColor=#9673a6;entryX=0;entryY=0.5;entryDx=0;entryDy=0;" edge="1" visible="0" parent="1" source="Jg3intxD1ek4P_nfdZ0U-142" target="Jg3intxD1ek4P_nfdZ0U-154">
          <mxGeometry relative="1" as="geometry">
            <mxPoint x="465.25" y="-320" as="targetPoint" />
            <mxPoint x="415.25" y="-295" as="sourcePoint" />
          </mxGeometry>
        </mxCell>
        <mxCell id="Jg3intxD1ek4P_nfdZ0U-156" style="edgeStyle=entityRelationEdgeStyle;rounded=0;orthogonalLoop=1;jettySize=auto;html=1;startArrow=none;endArrow=none;segment=10;curved=1;sourcePerimeterSpacing=0;targetPerimeterSpacing=0;exitX=1;exitY=0.5;exitDx=0;exitDy=0;fillColor=#e1d5e7;strokeColor=#9673a6;entryX=0;entryY=0.5;entryDx=0;entryDy=0;" edge="1" visible="0" parent="1" source="Jg3intxD1ek4P_nfdZ0U-142" target="Jg3intxD1ek4P_nfdZ0U-153">
          <mxGeometry relative="1" as="geometry">
            <mxPoint x="535" y="-165" as="targetPoint" />
            <mxPoint x="470" y="-130" as="sourcePoint" />
          </mxGeometry>
        </mxCell>
      </root>
    </mxGraphModel>
  </diagram>
</mxfile>
